<?xml version="1.0" encoding="UTF-8"?>
<svg width="171px" height="77px" viewBox="0 0 171 77" version="1.1" xmlns="http://www.w3.org/2000/svg" xmlns:xlink="http://www.w3.org/1999/xlink">
    <!-- Generator: Sketch 53.2 (72643) - https://sketchapp.com -->
    <title>Krill</title>
    <desc>Created with Sketch.</desc>
    <g id="Page-1" stroke="none" stroke-width="1" fill="none" fill-rule="evenodd">
        <g id="the-winner" transform="translate(-15.000000, -21.000000)" fill="#FFFFFF">
            <g id="Krill" transform="translate(0.916579, 0.907371)">
                <path d="M98.6316208,49.2468552 C98.6316208,49.2468552 113.831621,43.6468552 138.331621,51.2468552 C162.831621,58.8468552 169.631621,61.9468552 169.631621,61.9468552 L169.131621,62.2468552 C169.131621,62.2468552 144.531621,54.4468552 130.931621,50.0468552 C117.231621,45.7468552 98.6316208,49.2468552 98.6316208,49.2468552 Z M173.031621,55.7468552 C173.031621,55.7468552 177.931621,57.6468552 180.931621,58.5468552 C184.031621,59.5468552 184.431621,59.7468552 183.831621,59.2468552 C183.231621,58.6468552 182.831621,57.7468552 182.631621,56.7468552 C182.431621,55.7468552 186.931621,55.2468552 186.931621,55.2468552 L173.031621,55.7468552 Z" id="Shape" fill-rule="nonzero" transform="translate(142.781621, 54.753102) scale(-1, 1) rotate(-28.000000) translate(-142.781621, -54.753102) "></path>
                <path d="M127.961739,44.0354108 C123.361739,42.0354108 117.961739,38.4354108 111.561739,38.4354108 C106.761739,38.4354108 103.861739,40.0354108 102.661739,40.8354108 C99.1617388,40.9354108 97.1617388,41.8354108 97.1617388,41.8354108 C97.1617388,41.8354108 101.461739,41.0354108 106.861739,41.7354108 C108.961739,42.0354108 111.361739,42.7354108 113.461739,43.4354108 C111.461739,43.0354108 108.861739,42.9354108 105.361739,43.7354108 C97.7617388,45.4354108 96.6617388,47.9354108 96.6617388,47.9354108 C99.1617388,45.7354108 106.161739,42.6354108 111.561739,44.0354108 C116.961739,45.3354108 124.461739,50.1354108 125.161739,50.8354108 C125.861739,51.5354108 124.461739,51.8354108 121.961739,51.2354108 C120.761739,50.9354108 110.661739,47.5354108 108.561739,47.0354108 C106.461739,46.5354108 106.761739,47.3354108 107.761739,47.3354108 C108.661739,47.3354108 116.561739,50.7354108 121.761739,52.6354108 C133.261739,56.7354108 143.361739,55.0354108 143.461739,55.0354108 C143.361739,55.0354108 143.361739,54.4354108 143.261739,54.3354108 C143.261739,53.5354108 143.461739,52.7354108 143.761739,52.0354108 C144.061739,51.3354108 137.961739,51.0354108 138.361739,50.3354108 C138.761739,49.7354108 139.261739,48.9354108 139.661739,48.3354108 C139.761739,48.2354108 139.761739,48.1354108 139.861739,48.0354108 C139.961739,48.1354108 132.561739,46.0354108 127.961739,44.0354108 L127.961739,44.0354108 Z M118.661739,45.7354108 C118.161739,45.4354108 117.561739,45.0354108 116.861739,44.6354108 C118.561739,45.3354108 119.761739,45.8354108 119.961739,45.9354108 C120.461739,46.2354108 120.761739,47.2354108 118.661739,45.7354108 L118.661739,45.7354108 Z M112.661739,40.4354108 C107.861739,38.9354108 105.161739,40.6354108 105.161739,40.6354108 C112.261739,39.3354108 122.361739,44.8354108 122.361739,45.2354108 C122.361739,45.6354108 112.761739,41.9354108 106.661739,41.1354108 C105.361739,40.9354108 104.161739,40.9354108 103.061739,40.9354108 C105.461739,39.9354108 111.761739,37.9354108 117.561739,40.6354108 C123.661739,43.5354108 128.861739,45.8354108 132.561739,47.6354108 L129.961739,46.3354108 C123.261739,42.9354108 117.361739,41.8354108 112.661739,40.4354108 L112.661739,40.4354108 Z" id="Shape" fill-rule="nonzero" transform="translate(120.217098, 46.910095) scale(-1, 1) rotate(-28.000000) translate(-120.217098, -46.910095) "></path>
                <path d="M36.200749,58.7906951 C37.700749,56.7906951 40.900749,52.1906951 42.400749,51.0906951 C43.300749,50.4906951 47.100749,49.6906951 51.100749,49.1906951 L51.100749,47.4906951 L50.800749,47.1906951 L50.500749,46.8906951 L50.300749,46.6906951 L49.600749,45.9906951 C46.100749,46.6906951 43.000749,48.0906951 41.200749,49.3906951 C38.900749,51.2906951 33.400749,62.3906951 36.200749,58.7906951 L36.200749,58.7906951 Z" id="Path" fill-rule="evenodd" transform="translate(43.262525, 52.747380) scale(-1, 1) rotate(-28.000000) translate(-43.262525, -52.747380) "></path>
                <path d="M34.449658,58.1007391 C35.649658,55.9007391 38.149658,50.2007391 39.449658,48.9007391 C40.549658,47.9007391 45.749658,46.2007391 50.549658,45.2007391 C50.949658,45.1007391 51.249658,45.1007391 51.549658,45.0007391 L52.049658,44.7007391 C50.249658,44.6007391 49.149658,43.9007391 47.949658,43.1007391 C47.449658,43.3007391 46.649658,43.1007391 46.049658,43.0007391 C42.449658,44.2007391 39.349658,46.2007391 37.649658,47.9007391 C35.649658,50.0007391 32.249658,62.1007391 34.449658,58.1007391 L34.449658,58.1007391 Z M43.849658,61.6007391 C45.749658,59.1007391 47.549658,56.1007391 49.249658,55.5007391 C49.949658,55.2007391 52.949658,55.4007391 56.249658,55.8007391 C56.149658,55.7007391 56.149658,55.6007391 56.049658,55.5007391 C55.749658,54.9007391 55.549658,54.5007391 55.249658,53.7007391 C55.149658,53.4007391 55.049658,53.1007391 54.949658,52.9007391 C52.149658,52.9007391 49.649658,53.2007391 48.349658,53.7007391 C45.849658,54.9007391 40.849658,65.5007391 43.849658,61.6007391 L43.849658,61.6007391 Z" id="Shape" fill-rule="evenodd" transform="translate(44.992430, 52.729461) scale(-1, 1) rotate(-28.000000) translate(-44.992430, -52.729461) "></path>
                <path d="M56.4104674,70.982635 C58.3104674,68.482635 60.3104674,65.782635 62.0104674,65.082635 C62.7104674,64.782635 67.6104674,63.782635 69.0104674,64.082635 C68.8104674,62.882635 68.9104674,61.682635 68.8104674,61.382635 C66.0104674,61.382635 62.3104674,62.582635 61.0104674,63.182635 C58.3104674,64.282635 53.4104674,74.882635 56.4104674,70.982635 L56.4104674,70.982635 Z M32.7104674,56.282635 C33.9104674,54.082635 36.0104674,48.782635 37.2104674,47.582635 C38.1104674,46.682635 43.2104674,44.782635 47.7104674,43.682635 C47.3104674,43.682635 46.9104674,43.582635 46.5104674,43.582635 C44.7104674,43.382635 43.0104674,42.982635 41.4104674,42.182635 C38.9104674,43.382635 36.9104674,44.882635 35.7104674,46.182635 C33.7104674,48.182635 30.5104674,60.382635 32.7104674,56.282635 L32.7104674,56.282635 Z M41.9104674,59.082635 C41.4104674,56.582635 43.1104674,52.082635 44.1104674,50.882635 C44.9104674,49.882635 50.2104674,47.182635 54.7104674,45.582635 C55.0104674,45.482635 55.4104674,45.382635 55.6104674,45.182635 C55.3104674,45.082635 55.1104674,44.982635 54.8104674,44.882635 C54.2104674,44.582635 53.7104674,44.482635 53.3104674,44.182635 L52.7104674,43.782635 L52.3104674,43.782635 C51.8104674,43.782635 51.3104674,43.882635 50.6104674,43.882635 C46.7104674,45.382635 43.5104674,48.082635 42.1104674,50.082635 C40.8104674,52.082635 40.7104674,62.782635 41.9104674,59.082635 L41.9104674,59.082635 Z" id="Shape" fill-rule="evenodd" transform="translate(50.489394, 57.011540) scale(-1, 1) rotate(-28.000000) translate(-50.489394, -57.011540) "></path>
                <path d="M26.2752866,65.1546409 C26.1752866,65.0546409 25.7752866,64.5546409 25.6752866,64.5546409 C22.1752866,67.7546409 17.9752866,74.6546409 16.7752866,78.5546409 C15.9752866,81.0546409 17.0752866,87.3546409 17.8752866,87.6546409 C18.2752866,87.8546409 16.3752866,80.8546409 26.2752866,65.1546409 Z" id="Path" fill-rule="nonzero" transform="translate(21.386181, 76.106722) scale(-1, 1) rotate(-28.000000) translate(-21.386181, -76.106722) "></path>
                <path d="M17.7762912,63.8865442 C17.4762912,63.6865442 17.0762912,63.4865442 16.8762912,63.1865442 C14.3762912,67.1865442 11.8762912,71.8865442 10.4762912,76.3865442 C10.2762912,76.9865442 9.67629123,78.8865442 9.37629123,80.6865442 C8.97629123,87.7865442 8.07629123,90.7865442 12.0762912,82.1865442 C12.0762912,78.4865442 13.2762912,74.4865442 14.5762912,70.9865442 C15.4762912,68.5865442 16.5762912,66.2865442 17.7762912,63.8865442 L17.7762912,63.8865442 Z M27.8762912,45.0865442 C27.7762912,45.1865442 27.6762912,45.3865442 27.5762912,45.4865442 C27.4762912,45.6865442 27.3762912,45.7865442 27.2762912,45.8865442 C26.0762912,47.1865442 23.7762912,48.1865442 21.2762912,48.3865442 C19.0762912,48.6865442 16.5762912,48.3865442 14.7762912,47.3865442 C14.2762912,48.5865442 14.4762912,50.2865442 14.3762912,51.9865442 C14.0762912,55.0865442 14.4762912,58.2865442 15.2762912,60.0865442 C15.3762912,60.2865442 15.4762912,60.3865442 15.4762912,60.4865442 C16.3762912,61.8865442 17.2762912,62.8865442 18.6762912,63.3865442 C19.8762912,63.8865442 21.1762912,63.8865442 22.2762912,63.1865442 C22.7762912,62.8865442 23.1762912,62.4865442 23.6762912,61.9865442 C25.3762912,59.9865442 26.8762912,56.2865442 27.6762912,52.5865442 C28.1762912,49.7865442 28.3762912,46.9865442 27.8762912,45.0865442 L27.8762912,45.0865442 Z" id="Shape" fill-rule="nonzero" transform="translate(18.582957, 66.264441) scale(-1, 1) rotate(-28.000000) translate(-18.582957, -66.264441) "></path>
                <path d="M36.4467043,35.7732537 C35.5467043,37.3732537 34.2467043,38.7732537 32.6467043,39.7732537 C30.9467043,40.8732537 28.9467043,41.5732537 26.9467043,41.7732537 C24.8467043,41.9732537 22.7467043,41.7732537 20.9467043,40.8732537 C20.9467043,41.3732537 21.0467043,41.8732537 21.1467043,42.4732537 C21.4467043,43.9732537 22.1467043,45.5732537 22.7467043,46.5732537 C23.0467043,47.0732537 23.2467043,47.3732537 23.4467043,47.5732537 C23.6467043,47.7732537 23.8467043,47.8732537 23.9467043,47.9732537 C25.5467043,49.0732537 27.8467043,49.3732537 30.0467043,49.0732537 C32.7467043,48.7732537 34.7467043,47.9732537 35.9467043,45.6732537 C37.1467043,42.9732537 38.2467043,38.5732537 36.4467043,35.7732537 L36.4467043,35.7732537 Z" id="Path" fill-rule="nonzero" transform="translate(29.171385, 42.478031) scale(-1, 1) rotate(-28.000000) translate(-29.171385, -42.478031) "></path>
                <path d="M57.7976279,31.3944865 C57.6976279,32.0944865 57.4976279,32.7944865 57.0976279,33.4944865 C55.9976279,35.6944865 53.3976279,38.3944865 50.3976279,40.1944865 C48.0976279,41.5944865 45.5976279,42.5944865 43.0976279,42.6944865 C43.1976279,43.3944865 43.4976279,43.5944865 44.0976279,44.1944865 C44.1976279,44.2944865 44.2976279,44.3944865 44.5976279,44.5944865 C46.2976279,46.0944865 48.6976279,46.5944865 51.0976279,46.2944865 C52.8976279,46.0944865 54.6976279,45.4944865 56.1976279,44.4944865 C57.6976279,43.5944865 58.8976279,42.2944865 59.5976279,40.7944865 C60.3976279,39.1944865 60.5976279,37.1944865 59.7976279,35.0944865 C59.3976279,33.8944865 58.6976279,32.4944865 57.7976279,31.3944865 Z M30.6976279,16.1944865 C30.3976279,16.1944865 30.0976279,16.2944865 29.6976279,16.2944865 C31.9976279,19.1944865 32.9976279,22.2944865 33.2976279,25.3944865 C33.7976279,30.0944865 32.5976279,34.5944865 31.4976279,37.4944865 C32.1976279,37.9944865 33.4976279,38.5944865 34.7976279,38.9944865 C35.2976279,39.0944865 35.7976279,39.2944865 36.1976279,39.2944865 C37.1976279,39.4944865 37.5976279,39.3944865 38.1976279,38.8944865 C39.8976279,37.3944865 41.3976279,34.8944865 42.4976279,32.1944865 C43.7976279,29.0944865 44.4976279,25.7944865 44.2976279,23.5944865 C44.2976279,23.1944865 44.1976279,22.7944865 44.0976279,22.3944865 C43.3976279,20.1944865 41.2976279,18.5944865 38.6976279,17.5944865 C36.1976279,16.4944865 33.1976279,16.0944865 30.6976279,16.1944865 L30.6976279,16.1944865 Z" id="Shape" fill-rule="nonzero" transform="translate(45.002268, 31.278634) scale(-1, 1) rotate(-28.000000) translate(-45.002268, -31.278634) "></path>
                <path d="M61.5540137,25.1227259 C61.9540137,25.8227259 62.1540137,26.7227259 62.1540137,27.5227259 C62.3540137,30.0227259 61.5540137,33.5227259 60.1540137,36.9227259 C58.9540137,39.8227259 57.2540137,42.6227259 55.3540137,44.3227259 C55.6540137,44.5227259 55.9540137,44.7227259 56.2540137,44.8227259 C56.8540137,45.0227259 57.4540137,45.1227259 58.3540137,45.2227259 C63.4540137,45.5227259 73.1540137,39.6227259 72.2540137,33.8227259 C71.8540137,30.2227259 64.9540137,24.1227259 61.5540137,25.1227259 L61.5540137,25.1227259 Z M35.0540137,18.9227259 C35.2540137,19.2227259 35.4540137,19.4227259 35.6540137,19.7227259 C38.1540137,23.1227259 39.0540137,26.8227259 38.7540137,30.1227259 C38.4540137,33.5227259 36.9540137,36.6227259 34.4540137,38.8227259 C37.9540137,41.3227259 43.5540137,41.2227259 46.2540137,41.0227259 C47.3540137,38.2227259 48.4540137,34.0227259 48.0540137,29.6227259 C47.7540137,26.5227259 46.6540137,23.3227259 44.1540137,20.6227259 C42.2540137,19.9227259 39.0540137,19.2227259 36.7540137,18.9227259 L35.0540137,18.9227259 L35.0540137,18.9227259 Z" id="Shape" fill-rule="nonzero" transform="translate(53.383279, 32.078215) scale(-1, 1) rotate(-28.000000) translate(-53.383279, -32.078215) "></path>
                <path d="M27.9877032,20.8047833 C31.7877032,22.6047833 38.1877032,26.0047833 43.2877032,33.6047833 C46.1877032,37.9047833 50.7877032,41.2047833 55.5877032,43.6047833 C62.2877032,46.9047833 69.1877032,48.2047833 72.1877032,47.9047833 C77.9877032,43.2047833 76.2877032,32.8047833 72.1877032,27.7047833 C66.4877032,24.5047833 59.7877032,23.8047833 50.1877032,21.0047833 C42.6877032,18.9047833 33.7877032,16.2047833 25.8877032,16.0047833 C20.2877032,15.9047833 24.1877032,17.4047833 24.9877032,17.5047833 C28.1877032,18.0047833 39.2877032,23.5047833 27.9877032,20.8047833 L27.9877032,20.8047833 Z M110.587703,86.8047833 C109.387703,87.1047833 108.187703,86.9047833 107.087703,86.4047833 C105.887703,88.6047833 104.787703,91.1047833 103.887703,93.5047833 C103.487703,94.6047833 100.687703,104.404783 101.387703,108.004783 C107.387703,96.8047833 110.787703,86.7047833 110.587703,86.8047833 L110.587703,86.8047833 Z" id="Shape" fill-rule="nonzero" transform="translate(66.758659, 62.002392) scale(-1, 1) rotate(-28.000000) translate(-66.758659, -62.002392) "></path>
                <path d="M115.449389,38.6460403 C115.349389,40.7460403 113.449389,42.4460403 111.249389,42.4460403 C109.049389,42.4460403 107.349389,40.6460403 107.449389,38.5460403 C107.549389,36.4460403 109.449389,34.7460403 111.649389,34.7460403 C113.849389,34.7460403 115.549389,36.5460403 115.449389,38.6460403 Z" id="Path" fill-rule="nonzero" transform="translate(111.449389, 38.596040) scale(-1, 1) rotate(-28.000000) translate(-111.449389, -38.596040) "></path>
                <path d="M114.207977,38.4089007 C114.207977,39.2089007 113.507977,39.9089007 112.807977,39.9089007 C112.107977,39.9089007 111.507977,39.2089007 111.607977,38.4089007 C111.607977,37.6089007 112.307977,36.9089007 113.007977,36.9089007 C113.707977,36.9089007 114.307977,37.6089007 114.207977,38.4089007 Z" id="Path" fill-rule="nonzero" transform="translate(112.907977, 38.408901) scale(-1, 1) rotate(-28.000000) translate(-112.907977, -38.408901) "></path>
                <path d="M86.5425456,54.1540763 C86.5425456,54.1540763 83.6425456,55.5540763 80.3425456,55.9540763 C77.0425456,56.3540763 73.6425456,57.8540763 71.9425456,60.1540763 C70.3425456,62.4540763 70.1425456,65.2540763 70.4425456,64.2540763 C70.7425456,63.2540763 73.3425456,59.9540763 74.4425456,59.3540763 C75.6425456,58.6540763 77.8425456,58.0540763 82.3425456,57.1540763 C86.8425456,56.2540763 87.6425456,54.4540763 87.3425456,54.0540763 C87.0425456,53.5540763 86.5425456,54.1540763 86.5425456,54.1540763 L86.5425456,54.1540763 Z" id="Path" fill-rule="nonzero" transform="translate(78.861926, 59.158823) scale(-1, 1) rotate(-28.000000) translate(-78.861926, -59.158823) "></path>
                <path d="M132.040688,65.7243142 C132.040688,65.7243142 132.340688,67.7243142 125.740688,68.9243142 C119.140688,70.1243142 117.840688,71.5243142 117.040688,73.0243142 C116.240688,74.5243142 115.840688,75.3243142 116.840688,74.4243142 C117.740688,73.5243142 121.240688,70.4243142 125.540688,70.5243142 C129.840688,70.6243142 132.340688,67.9243142 132.440688,66.9243142 C132.440688,65.9243142 132.040688,65.7243142 132.040688,65.7243142 Z M123.540688,63.1243142 C123.540688,63.1243142 119.240688,64.7243142 111.840688,64.6243142 C104.440688,64.5243142 93.7406882,61.4243142 91.3406882,62.7243142 C88.9406882,64.0243142 84.2406882,66.5243142 79.2406882,69.2243142 C74.2406882,71.9243142 67.7406882,77.6243142 66.8406882,78.0243142 C65.9406882,78.4243142 68.6406882,76.1243142 69.2406882,75.5243142 C69.7406882,74.9243142 82.5406882,65.2243142 88.6406882,61.8243142 C92.4406882,59.7243142 95.2406882,59.6243142 97.2406882,60.7243142 C99.2406882,61.8243142 109.640688,63.5243142 115.140688,63.1243142 C120.740688,62.7243142 122.940688,61.8243142 123.340688,62.1243142 C123.740688,62.4243142 123.540688,63.1243142 123.540688,63.1243142 Z" id="Shape" fill-rule="nonzero" transform="translate(99.549706, 69.051087) scale(-1, 1) rotate(-28.000000) translate(-99.549706, -69.051087) "></path>
                <path d="M128.468583,63.4253555 C128.468583,63.4253555 120.968583,65.0253555 114.568583,63.9253555 C108.268583,62.8253555 105.768583,60.9253555 101.368583,61.4253555 C96.868583,61.9253555 86.368583,68.6253555 83.468583,71.5253555 C80.568583,74.4253555 80.368583,75.6253555 80.368583,75.6253555 C80.368583,75.6253555 79.768583,73.3253555 84.168583,69.6253555 C88.568583,65.9253555 99.268583,59.5253555 101.868583,59.1253555 C104.468583,58.7253555 104.968583,59.2253555 109.568583,60.8253555 C116.968583,63.3253555 127.568583,63.0253555 127.568583,63.0253555 C127.568583,63.0253555 130.068583,63.5253555 128.468583,63.4253555 L128.468583,63.4253555 Z" id="Path" fill-rule="nonzero" transform="translate(104.672209, 67.309748) scale(-1, 1) rotate(-28.000000) translate(-104.672209, -67.309748) "></path>
                <path d="M153.092974,67.7871505 C153.092974,67.7871505 148.892974,68.0871505 142.592974,66.9871505 C136.292974,65.8871505 133.792974,63.9871505 129.392974,64.4871505 C124.892974,64.9871505 113.292974,69.5871505 110.392974,72.4871505 C107.492974,75.3871505 107.292974,76.5871505 107.292974,76.5871505 C107.292974,76.5871505 106.692974,74.2871505 111.092974,70.5871505 C115.492974,66.8871505 127.392974,63.2871505 129.992974,62.8871505 C132.592974,62.4871505 133.092974,62.9871505 137.692974,64.5871505 C145.092974,67.0871505 152.292974,67.2871505 152.292974,67.2871505 C152.292974,67.2871505 154.592974,67.8871505 153.092974,67.7871505 Z M162.392974,72.6871505 C162.392974,72.6871505 158.792974,75.1871505 148.092974,75.1871505 C137.292974,75.1871505 133.392974,72.9871505 132.892974,73.6871505 C132.392974,74.3871505 126.892974,82.4871505 122.192974,86.5871505 C117.492974,90.5871505 112.992974,95.2871505 113.792974,95.1871505 C114.292974,95.0871505 120.092974,89.0871505 122.192974,87.7871505 C124.292974,86.4871505 129.092974,81.7871505 131.092974,79.2871505 C133.092974,76.7871505 133.192974,75.6871505 133.792974,75.8871505 C134.392974,76.0871505 137.792974,76.5871505 147.092974,76.4871505 C156.392974,76.3871505 163.592974,74.0871505 163.692974,73.4871505 C163.792974,72.7871505 162.392974,72.6871505 162.392974,72.6871505 L162.392974,72.6871505 Z M148.392974,63.7871505 C148.392974,63.7871505 141.792974,63.8871505 132.692974,62.0871505 C123.592974,60.2871505 120.592974,60.3871505 119.792974,60.6871505 C119.092974,60.8871505 121.492974,59.5871505 126.692974,60.6871505 C131.892974,61.7871505 145.092974,62.8871505 146.392974,62.8871505 C147.692974,62.6871505 149.392974,63.4871505 148.392974,63.7871505 Z M146.892974,62.1871505 C146.892974,62.1871505 137.892974,61.4871505 128.492974,59.7871505 C119.192974,58.0871505 116.992974,59.0871505 116.992974,59.0871505 C116.992974,59.0871505 118.092974,57.9871505 122.092974,58.2871505 C126.092974,58.5871505 131.692974,59.7871505 136.792974,60.0871505 C141.792974,60.4871505 146.292974,61.2871505 146.892974,62.1871505 Z M143.492974,60.4871505 C143.492974,60.4871505 135.092974,58.9871505 127.392974,56.6871505 C119.692974,54.3871505 117.792974,54.6871505 116.492974,54.9871505 C115.192974,55.1871505 114.392974,55.3871505 114.392974,55.3871505 C114.392974,55.3871505 115.892974,53.9871505 120.292974,54.3871505 C124.792974,54.7871505 132.192974,57.2871505 135.792974,57.6871505 C139.392974,58.1871505 142.492974,59.2871505 143.992974,60.0871505 C145.492974,60.9871505 144.392974,60.9871505 143.492974,60.4871505 L143.492974,60.4871505 Z M129.892974,47.3871505 C129.892974,47.3871505 121.592974,40.4871505 106.392974,40.4871505 C90.5929738,40.4871505 88.9929738,60.7871505 75.8929738,66.2871505 C86.7929738,64.6871505 90.8929738,41.9871505 105.292974,41.0871505 C111.292974,40.2871505 125.892974,44.0871505 128.992974,47.2871505 L129.892974,47.3871505 Z" id="Shape" fill-rule="nonzero" transform="translate(119.795530, 67.837935) scale(-1, 1) rotate(-28.000000) translate(-119.795530, -67.837935) "></path>
                <path d="M141.823294,51.2150733 C141.823294,51.2150733 132.123294,47.8150733 118.323294,55.8150733 C104.023294,64.2150733 113.223294,78.8150733 103.823294,90.4150733 C112.923294,83.4150733 104.923294,65.3150733 117.523294,56.9150733 C122.623294,53.1150733 136.623294,50.6150733 140.823294,51.6150733 L141.823294,51.2150733 Z" id="Path" fill-rule="nonzero" transform="translate(122.823294, 70.456198) scale(-1, 1) rotate(-28.000000) translate(-122.823294, -70.456198) "></path>
            </g>
        </g>
    </g>
</svg>