<svg width="50px" height="58px" viewBox="0 0 50 58" version="1.1" 
    xmlns="http://www.w3.org/2000/svg" 
    xmlns:xlink="http://www.w3.org/1999/xlink">
    <g id="Page-1" stroke="none" stroke-width="1" fill="none" fill-rule="evenodd">
        <g id="Group" fill-rule="nonzero">
            <g transform="translate(10.000000, 38.000000)" fill="#263238" id="Path">
                <path d="M16.5,5.25 C16.441,5.25 16.38,5.24 16.322,5.217 L8.402,2.199 C6.747,1.569 5.01,1.249 3.24,1.249 L0.5,1.249 C0.224,1.249 0,1.025 0,0.749 C0,0.473 0.224,0.249 0.5,0.249 L3.24,0.249 C5.132,0.249 6.989,0.59 8.758,1.264 L16.679,4.282 C16.937,4.38 17.066,4.669 16.968,4.928 C16.891,5.127 16.701,5.25 16.5,5.25 Z" />
                <path d="M36.5,17.25 L21.99,17.25 C19.616,17.25 17.28,16.842 15.046,16.038 L7.472,13.311 C6.437,12.938 5.354,12.749 4.254,12.749 L0.5,12.749 C0.224,12.749 0,12.525 0,12.249 C0,11.973 0.224,11.749 0.5,11.749 L4.255,11.749 C5.471,11.749 6.667,11.958 7.812,12.37 L15.386,15.097 C17.511,15.862 19.733,16.249 21.991,16.249 L36.5,16.249 C37.603,16.249 38.5,15.352 38.5,14.249 C38.5,13.146 37.603,12.249 36.5,12.249 L25,12.249 C24.724,12.249 24.5,12.025 24.5,11.749 C24.5,11.473 24.724,11.249 25,11.249 L36.5,11.249 C38.154,11.249 39.5,12.595 39.5,14.249 C39.5,15.903 38.154,17.25 36.5,17.25 Z" />
            </g>
            <path d="M1,37.25 L1,51.75 C1,52.302 1.448,52.75 2,52.75 L7.5,52.75 C8.052,52.75 8.5,52.302 8.5,51.75 L8.5,37.25 C8.5,36.698 8.052,36.25 7.5,36.25 L2,36.25 C1.448,36.25 1,36.698 1,37.25 Z" id="Path" fill="#F63107" />
            <g transform="translate(0.000000, 4.000000)" fill="#263238">
                <path d="M7.5,49.25 L2,49.25 C1.173,49.25 0.5,48.577 0.5,47.75 L0.5,33.25 C0.5,32.423 1.173,31.75 2,31.75 L7.5,31.75 C8.327,31.75 9,32.423 9,33.25 L9,47.75 C9,48.577 8.327,49.25 7.5,49.25 Z M2,32.75 C1.724,32.75 1.5,32.974 1.5,33.25 L1.5,47.75 C1.5,48.026 1.724,48.25 2,48.25 L7.5,48.25 C7.776,48.25 8,48.026 8,47.75 L8,33.25 C8,32.974 7.776,32.75 7.5,32.75 L2,32.75 Z" id="Shape" />
                <path d="M33.5,44.25 L27,44.25 C26.724,44.25 26.5,44.026 26.5,43.75 C26.5,43.474 26.724,43.25 27,43.25 L33.5,43.25 C34.603,43.25 35.5,42.353 35.5,41.25 C35.5,40.147 34.603,39.25 33.5,39.25 L26.5,39.25 C26.224,39.25 26,39.026 26,38.75 C26,38.474 26.224,38.25 26.5,38.25 L33.5,38.25 C35.154,38.25 36.5,39.596 36.5,41.25 C36.5,42.904 35.154,44.25 33.5,44.25 Z" id="Path" />
                <path d="M44,39.25 L37.5,39.25 C37.224,39.25 37,39.026 37,38.75 C37,38.474 37.224,38.25 37.5,38.25 L44,38.25 C45.103,38.25 46,37.353 46,36.25 L46,7.75 C46,6.647 45.103,5.75 44,5.75 L13,5.75 C11.897,5.75 11,6.647 11,7.75 L11,30.25 C11,30.526 10.776,30.75 10.5,30.75 C10.224,30.75 10,30.526 10,30.25 L10,7.75 C10,6.096 11.346,4.75 13,4.75 L44,4.75 C45.654,4.75 47,6.096 47,7.75 L47,36.25 C47,37.904 45.654,39.25 44,39.25 Z" id="Path" />
                <path d="M5.25,53.25 L4.25,53.25 C3.974,53.25 3.75,53.026 3.75,52.75 C3.75,52.474 3.974,52.25 4.25,52.25 L5.25,52.25 C5.526,52.25 5.75,52.474 5.75,52.75 C5.75,53.026 5.526,53.25 5.25,53.25 Z" id="Path" />
                <path d="M18.25,53.25 L7.25,53.25 C6.974,53.25 6.75,53.026 6.75,52.75 C6.75,52.474 6.974,52.25 7.25,52.25 L18.25,52.25 C18.526,52.25 18.75,52.474 18.75,52.75 C18.75,53.026 18.526,53.25 18.25,53.25 Z" id="Path" />
                <path d="M43.288,1.25 L42.288,1.25 C42.012,1.25 41.788,1.026 41.788,0.75 C41.788,0.474 42.012,0.25 42.288,0.25 L43.288,0.25 C43.564,0.25 43.788,0.474 43.788,0.75 C43.788,1.026 43.564,1.25 43.288,1.25 Z" id="Path" />
                <path d="M40.288,1.25 L24.288,1.25 C24.012,1.25 23.788,1.026 23.788,0.75 C23.788,0.474 24.012,0.25 24.288,0.25 L40.288,0.25 C40.564,0.25 40.788,0.474 40.788,0.75 C40.788,1.026 40.564,1.25 40.288,1.25 Z" id="Path" />
            </g>
            <path d="M37.683,28.38 L37.341,28.183 C37.472,27.59 37.547,26.977 37.547,26.345 C37.547,25.713 37.473,25.099 37.341,24.507 L37.683,24.31 L38.784,23.342 C39.087,23.075 39.16,22.632 38.958,22.282 L37.534,19.816 C37.332,19.466 36.911,19.307 36.528,19.437 L35.139,19.907 L34.792,20.107 C33.889,19.278 32.811,18.637 31.613,18.26 L31.613,17.871 L31.326,16.434 C31.247,16.038 30.899,15.753 30.495,15.753 L27.647,15.753 C27.243,15.753 26.895,16.038 26.816,16.434 L26.529,17.871 L26.529,18.26 C25.331,18.636 24.253,19.278 23.35,20.107 L23.003,19.907 L21.614,19.437 C21.231,19.308 20.81,19.466 20.608,19.816 L19.184,22.282 C18.982,22.632 19.055,23.076 19.358,23.342 L20.459,24.31 L20.801,24.507 C20.67,25.1 20.595,25.713 20.595,26.345 C20.595,26.977 20.669,27.591 20.801,28.183 L20.459,28.38 L19.358,29.347 C19.055,29.614 18.982,30.057 19.184,30.407 L20.608,32.873 C20.81,33.223 21.231,33.381 21.614,33.252 L23.002,32.782 L23.349,32.582 C24.252,33.411 25.33,34.052 26.528,34.429 L26.528,34.819 L26.815,36.256 C26.894,36.652 27.242,36.937 27.646,36.937 L30.494,36.937 C30.898,36.937 31.246,36.652 31.325,36.256 L31.612,34.819 L31.612,34.429 C32.81,34.053 33.888,33.411 34.791,32.582 L35.138,32.782 L36.526,33.252 C36.909,33.381 37.33,33.223 37.532,32.873 L38.956,30.407 C39.158,30.057 39.085,29.613 38.782,29.347 L37.683,28.38 Z M29.072,31.641 C26.147,31.641 23.775,29.269 23.775,26.344 C23.775,23.419 26.146,21.047 29.072,21.047 C31.997,21.047 34.369,23.418 34.369,26.344 C34.369,29.269 31.998,31.641 29.072,31.641 Z" id="Shape" fill="#F63107" />
            <g transform="translate(2.000000, 0.000000)" fill="#263238">
                <path d="M28.496,37.438 L25.648,37.438 C25.008,37.438 24.452,36.982 24.327,36.355 L24.037,34.792 C23.037,34.433 22.116,33.897 21.289,33.196 L21.253,33.217 L19.775,33.727 C19.168,33.932 18.497,33.678 18.176,33.124 L16.752,30.658 C16.432,30.104 16.548,29.395 17.029,28.972 L18.242,27.937 C18.145,27.402 18.096,26.868 18.096,26.345 C18.096,25.824 18.145,25.292 18.241,24.76 L18.21,24.742 L17.029,23.717 C16.548,23.294 16.431,22.585 16.752,22.031 L18.175,19.565 C18.495,19.011 19.168,18.757 19.774,18.962 L21.282,19.498 C22.108,18.796 23.029,18.261 24.028,17.9 L24.028,17.87 L24.325,16.334 C24.45,15.707 25.006,15.251 25.646,15.251 L28.494,15.251 C29.134,15.251 29.69,15.707 29.815,16.334 L30.105,17.897 C31.105,18.256 32.026,18.792 32.853,19.492 L32.889,19.471 L34.368,18.961 C34.973,18.756 35.646,19.009 35.966,19.563 L37.39,22.03 C37.71,22.584 37.594,23.293 37.113,23.716 L35.9,24.752 C35.997,25.286 36.046,25.82 36.046,26.344 C36.046,26.865 35.997,27.396 35.901,27.928 L35.932,27.946 C35.961,27.963 35.988,27.982 36.013,28.004 L37.114,28.972 C37.595,29.395 37.712,30.104 37.391,30.658 L35.968,33.124 C35.648,33.679 34.975,33.933 34.369,33.727 L32.861,33.191 C32.035,33.893 31.114,34.428 30.115,34.789 L30.115,34.82 L29.818,36.355 C29.692,36.982 29.136,37.438 28.496,37.438 L28.496,37.438 Z M21.351,32.083 C21.473,32.083 21.594,32.128 21.689,32.214 C22.567,33.02 23.574,33.605 24.68,33.952 C24.888,34.017 25.03,34.211 25.03,34.429 L25.03,34.819 L25.308,36.158 C25.34,36.32 25.484,36.437 25.649,36.437 L28.497,36.437 C28.662,36.437 28.806,36.32 28.838,36.158 L29.126,34.721 L29.116,34.429 C29.116,34.211 29.258,34.017 29.466,33.952 C30.572,33.604 31.579,33.02 32.457,32.214 C32.618,32.067 32.856,32.041 33.045,32.15 L33.392,32.35 L34.69,32.779 C34.849,32.833 35.02,32.767 35.102,32.623 L36.526,30.157 C36.609,30.014 36.579,29.831 36.455,29.722 L35.392,28.787 L35.093,28.615 C34.904,28.506 34.807,28.287 34.854,28.073 C34.983,27.491 35.048,26.909 35.048,26.343 C35.048,25.776 34.983,25.194 34.854,24.613 C34.807,24.4 34.903,24.181 35.092,24.071 L35.434,23.874 L36.455,22.964 C36.579,22.855 36.609,22.672 36.527,22.53 L35.103,20.063 C35.021,19.921 34.847,19.855 34.691,19.908 L33.302,20.378 L33.045,20.538 C32.856,20.646 32.618,20.621 32.457,20.474 C31.579,19.668 30.572,19.083 29.466,18.736 C29.258,18.671 29.116,18.477 29.116,18.259 L29.116,17.87 L28.838,16.531 C28.806,16.369 28.662,16.252 28.497,16.252 L25.649,16.252 C25.484,16.252 25.34,16.369 25.308,16.531 L25.02,17.969 L25.03,18.26 C25.03,18.478 24.888,18.672 24.68,18.737 C23.574,19.085 22.567,19.669 21.689,20.475 C21.528,20.622 21.29,20.648 21.101,20.539 L20.754,20.339 L19.455,19.91 C19.298,19.858 19.125,19.923 19.042,20.066 L17.619,22.532 C17.536,22.675 17.566,22.858 17.69,22.967 L18.791,23.935 L19.053,24.075 C19.242,24.184 19.338,24.403 19.291,24.617 C19.162,25.198 19.097,25.78 19.097,26.347 C19.097,26.913 19.162,27.495 19.291,28.077 C19.338,28.29 19.242,28.51 19.052,28.619 L18.71,28.816 L17.69,29.726 C17.566,29.835 17.536,30.018 17.618,30.16 L19.042,32.627 C19.125,32.77 19.299,32.836 19.454,32.783 L20.842,32.313 L21.099,32.153 C21.179,32.105 21.265,32.083 21.351,32.083 L21.351,32.083 Z M27.072,32.141 C23.876,32.141 21.275,29.54 21.275,26.344 C21.275,23.148 23.876,20.547 27.072,20.547 C30.268,20.547 32.869,23.148 32.869,26.344 C32.869,29.54 30.269,32.141 27.072,32.141 Z M27.072,21.547 C24.427,21.547 22.275,23.699 22.275,26.344 C22.275,28.989 24.427,31.141 27.072,31.141 C29.717,31.141 31.869,28.989 31.869,26.344 C31.869,23.699 29.717,21.547 27.072,21.547 Z" id="Shape" />
                <path d="M10.5,3.75 L6.5,3.75 C6.224,3.75 6,3.526 6,3.25 C6,2.974 6.224,2.75 6.5,2.75 L10.5,2.75 C10.776,2.75 11,2.974 11,3.25 C11,3.526 10.776,3.75 10.5,3.75 Z" id="Path" />
                <path d="M8.5,5.75 C8.224,5.75 8,5.526 8,5.25 L8,1.25 C8,0.974 8.224,0.75 8.5,0.75 C8.776,0.75 9,0.974 9,1.25 L9,5.25 C9,5.526 8.776,5.75 8.5,5.75 Z" id="Path" />
                <path d="M4.5,9.75 L0.5,9.75 C0.224,9.75 0,9.526 0,9.25 C0,8.974 0.224,8.75 0.5,8.75 L4.5,8.75 C4.776,8.75 5,8.974 5,9.25 C5,9.526 4.776,9.75 4.5,9.75 Z" id="Path" />
                <path d="M2.5,11.75 C2.224,11.75 2,11.526 2,11.25 L2,7.25 C2,6.974 2.224,6.75 2.5,6.75 C2.776,6.75 3,6.974 3,7.25 L3,11.25 C3,11.526 2.776,11.75 2.5,11.75 Z" id="Path" />
            </g>
        </g>
    </g>
</svg>