<?xml version="1.0" encoding="UTF-8" standalone="no"?>
<!DOCTYPE svg PUBLIC "-//W3C//DTD SVG 1.1//EN" "http://www.w3.org/Graphics/SVG/1.1/DTD/svg11.dtd">
<svg width="754px" height="186px" version="1.1" xmlns="http://www.w3.org/2000/svg" xmlns:xlink="http://www.w3.org/1999/xlink" xml:space="preserve" xmlns:serif="http://www.serif.com/" style="fill-rule:evenodd;clip-rule:evenodd;stroke-linejoin:round;stroke-miterlimit:2;">
    <g>
        <g>
            <g>
                <g>
                    <path d="M351.6,154.9L351.6,185.4L308.7,185.4L308.7,25L351.6,25L351.6,64.5C351.6,73 349.7,81.4 346,89C342.6,95.9 338.4,102.4 333.5,108.2L330.3,112L333.9,117.1L411.7,25L458,25L458,27.9L400.4,96.5L460.6,182.5L460.6,185.4L412.2,185.4L372.5,130.2L351.6,154.9Z" style="fill:white;fill-rule:nonzero;"/>
                    <path d="M596.6,0C609,0 620.3,7.1 620.3,21.3C620.3,35.8 609,42.9 596.6,42.9C584.2,42.9 572.9,35.8 572.9,21.3C573,7.1 584.3,0 596.6,0ZM575.6,185.4L575.6,58.4L617.7,58.4L617.7,185.4L575.6,185.4Z" style="fill:white;fill-rule:nonzero;"/>
                    <rect x="643.4" y="25" width="42.1" height="160.4" style="fill:white;fill-rule:nonzero;"/>
                    <rect x="711.2" y="25" width="42.1" height="160.4" style="fill:white;fill-rule:nonzero;"/>
                    <path d="M543.2,98.6L561.1,98.6L561.1,56.8C554,56 549.8,56 545.3,56C530.6,56 520.1,64.9 511.4,81.8L511.4,58.4L469.3,58.4L469.3,185.4L511.4,185.4L511.4,122C516.7,103.6 527.7,98.6 543.2,98.6Z" style="fill:white;fill-rule:nonzero;"/>
                </g>
            </g>
            <path d="M235.8,68.8C235.8,68.9 240.1,79.6 240.1,79.6L236.9,80C235.4,76.3 233.5,72.8 231.2,69.6L231.2,69.5C228.3,65.5 224.1,62.5 219.4,61.1C213.6,59.4 207.5,58.4 201.2,58.4L195.8,58.4L204.7,65.9L202.1,67.7C199.1,65.1 195.7,63 192.2,61.2C188.3,59.3 183.9,58.3 179.6,58.3L160.4,58.3L169.3,65.8L166.7,67.6C163.7,65 160.3,62.9 156.8,61.1C152.9,59.2 148.5,58.2 144.2,58.2L31.8,58.2C26.4,58.2 21,59.5 16.2,61.9C12,64 8,66.6 4.2,69.8L0,73.8L4.8,78.5L8.7,74.8C11.9,72.1 15.4,69.8 19.1,68C23,66.1 27.4,65.1 31.8,65.1L33.7,65.1C28.3,70 24.9,77 24.9,84.8L24.9,98.1L31.7,104.7L31.7,84.7C31.7,73.8 40.5,65 51.4,65L60.3,65L79.3,83.6C85.4,88.7 92,93.1 99.1,96.5C107,100.3 115.6,102.3 124.4,102.3L130.1,102.3L130.1,105.8C130.1,109.2 127.3,112 123.9,112C112,112 100.4,108.8 89.4,102.4C72.9,92.8 52,95.7 38.6,109.3L37.5,110.4L42.3,115.1L43.4,114C54.6,102.6 72.1,100.2 86,108.2C98.1,115.2 110.9,118.7 123.9,118.7C131.1,118.7 136.9,112.9 136.9,105.7L136.9,102.2L140.2,102.2L140.2,106.2C140.2,114.9 133.1,122 124.4,122L122.9,122C109.7,122 96.8,118.4 84.5,111.3C71.8,103.9 55.7,106.1 45.3,116.6L44.6,117.3L49.4,122L50.1,121.3C58.2,113 70.9,111.3 81,117.1C94.3,124.8 108.4,128.7 122.8,128.7L124.3,128.7C136.8,128.7 146.9,118.6 146.9,106.1L146.9,102.1L150.2,102.1L150.2,106.6C150.2,120.6 138.8,132 124.8,132L121.9,132C107.3,132 93,128 79.5,120C70.5,114.7 59.2,116.3 51.9,123.7L51.6,124L56.5,128.7L56.8,128.4C61.9,123.2 69.8,122.2 76.1,125.8C90.7,134.3 106.1,138.7 122,138.7L124.9,138.7C142.7,138.7 157.1,124.2 157.1,106.5L157.1,102L160.4,102L160.4,107C160.4,126.3 144.7,142 125.4,142L121,142C105.1,142 89.6,137.6 74.8,129C69.6,126 63.1,126.8 58.9,131.1L63.7,135.8C65.7,133.8 68.8,133.4 71.3,134.8C87.1,144.1 103.8,148.8 120.9,148.8L125.3,148.8C148.4,148.8 167.1,130 167.1,107L167.1,102L201,102C220.4,102 236.1,117.7 236.1,137.1C236.1,156.5 220.4,172.2 201,172.2L167.7,172.2L180.1,184.6L201.1,184.6C236.1,184.6 264.5,156.2 264.5,121.2C264.5,99.6 253,80.1 235.8,68.8ZM101.1,79.8C97.1,79.8 93.4,77.5 93.4,72.8C93.4,68.2 97.1,65.8 101.1,65.8C105.1,65.8 108.8,68.1 108.8,72.8C108.8,77.5 105.1,79.8 101.1,79.8Z" style="fill:white;fill-rule:nonzero;"/>
        </g>
    </g>
</svg>
