<svg xmlns="http://www.w3.org/2000/svg" x="0" y="0" viewBox="0 0 1077.2 453.5" xml:space="preserve"><style>.st0{fill:#fff}</style><switch><g><path class="st0" d="M491.9 272.1v30.5H449V142.2h42.9v39.5c0 8.5-1.9 16.9-5.6 24.5-3.4 6.9-7.6 13.4-12.5 19.2l-3.2 3.8 3.6 5.1 77.8-92.1h46.3v2.9l-57.6 68.6 60.2 86v2.9h-48.4l-39.7-55.2-20.9 24.7zM736.9 117.2c12.4 0 23.7 7.1 23.7 21.3 0 14.5-11.3 21.6-23.7 21.6s-23.7-7.1-23.7-21.6c.1-14.2 11.4-21.3 23.7-21.3zm-21 185.4v-127H758v127h-42.1zM783.7 302.6V142.2h42.1v160.4h-42.1zM851.5 302.6V142.2h42.1v160.4h-42.1zM683.5 215.8h17.9V174c-7.1-.8-11.3-.8-15.8-.8-14.7 0-25.2 8.9-33.9 25.8v-23.4h-42.1v127h42.1v-63.4c5.3-18.4 16.3-23.4 31.8-23.4zM376.1 186c0 .1 4.3 10.8 4.3 10.8l-3.2.4c-1.5-3.7-3.4-7.2-5.7-10.4v-.1c-2.9-4-7.1-7-11.8-8.4-5.8-1.7-11.9-2.7-18.2-2.7h-5.4l8.9 7.5-2.6 1.8c-3-2.6-6.4-4.7-9.9-6.5-3.9-1.9-8.3-2.9-12.6-2.9h-19.2l8.9 7.5-2.6 1.8c-3-2.6-6.4-4.7-9.9-6.5-3.9-1.9-8.3-2.9-12.6-2.9H172.1c-5.4 0-10.8 1.3-15.6 3.7-4.2 2.1-8.2 4.7-12 7.9l-4.2 4 4.8 4.7 3.9-3.7c3.2-2.7 6.7-5 10.4-6.8 3.9-1.9 8.3-2.9 12.7-2.9h1.9c-5.4 4.9-8.8 11.9-8.8 19.7v13.3l6.8 6.6v-20c0-10.9 8.8-19.7 19.7-19.7h8.9l19 18.6c6.1 5.1 12.7 9.5 19.8 12.9 7.9 3.8 16.5 5.8 25.3 5.8h5.7v3.5c0 3.4-2.8 6.2-6.2 6.2-11.9 0-23.5-3.2-34.5-9.6-16.5-9.6-37.4-6.7-50.8 6.9l-1.1 1.1 4.8 4.7 1.1-1.1c11.2-11.4 28.7-13.8 42.6-5.8 12.1 7 24.9 10.5 37.9 10.5 7.2 0 13-5.8 13-13v-3.5h3.3v4c0 8.7-7.1 15.8-15.8 15.8h-1.5c-13.2 0-26.1-3.6-38.4-10.7-12.7-7.4-28.8-5.2-39.2 5.3l-.7.7 4.8 4.7.7-.7c8.1-8.3 20.8-10 30.9-4.2 13.3 7.7 27.4 11.6 41.8 11.6h1.5c12.5 0 22.6-10.1 22.6-22.6v-4h3.3v4.5c0 14-11.4 25.4-25.4 25.4h-2.9c-14.6 0-28.9-4-42.4-12-9-5.3-20.3-3.7-27.6 3.7l-.3.3 4.9 4.7.3-.3c5.1-5.2 13-6.2 19.3-2.6 14.6 8.5 30 12.9 45.9 12.9h2.9c17.8 0 32.2-14.5 32.2-32.2v-4.5h3.3v5c0 19.3-15.7 35-35 35h-4.4c-15.9 0-31.4-4.4-46.2-13-5.2-3-11.7-2.2-15.9 2.1l4.8 4.7c2-2 5.1-2.4 7.6-1 15.8 9.3 32.5 14 49.6 14h4.4c23.1 0 41.8-18.8 41.8-41.8v-5h33.9c19.4 0 35.1 15.7 35.1 35.1s-15.7 35.1-35.1 35.1H308l12.4 12.4h21c35 0 63.4-28.4 63.4-63.4 0-21.6-11.5-41.1-28.7-52.4zm-134.7 11c-4 0-7.7-2.3-7.7-7 0-4.6 3.7-7 7.7-7s7.7 2.3 7.7 7-3.7 7-7.7 7z"/></g></switch></svg>