<svg width="50" height="58" xmlns="http://www.w3.org/2000/svg"><g fill-rule="nonzero" fill="none"><g fill="#263238"><path d="M26.5 43.25a.483.483 0 01-.178-.033l-7.92-3.018a14.46 14.46 0 00-5.162-.95H10.5a.5.5 0 010-1h2.74c1.892 0 3.749.341 5.518 1.015l7.921 3.018a.5.5 0 01-.179.968zM46.5 55.25H31.99c-2.374 0-4.71-.408-6.944-1.212l-7.574-2.727a9.466 9.466 0 00-3.218-.562H10.5a.5.5 0 010-1h3.755c1.216 0 2.412.209 3.557.621l7.574 2.727a19.444 19.444 0 006.605 1.152H46.5c1.103 0 2-.897 2-2s-.897-2-2-2H35a.5.5 0 010-1h11.5c1.654 0 3 1.346 3 3a3.005 3.005 0 01-3 3.001z"/></g><path d="M1 37.25v14.5a1 1 0 001 1h5.5a1 1 0 001-1v-14.5a1 1 0 00-1-1H2a1 1 0 00-1 1z" fill="#F63107"/><g fill="#263238"><path d="M7.5 53.25H2c-.827 0-1.5-.673-1.5-1.5v-14.5c0-.827.673-1.5 1.5-1.5h5.5c.827 0 1.5.673 1.5 1.5v14.5c0 .827-.673 1.5-1.5 1.5zM2 36.75a.5.5 0 00-.5.5v14.5a.5.5 0 00.5.5h5.5a.5.5 0 00.5-.5v-14.5a.5.5 0 00-.5-.5H2zM33.5 48.25H27a.5.5 0 010-1h6.5c1.103 0 2-.897 2-2s-.897-2-2-2h-7a.5.5 0 010-1h7c1.654 0 3 1.346 3 3s-1.346 3-3 3z"/><path d="M44 43.25h-6.5a.5.5 0 010-1H44c1.103 0 2-.897 2-2v-28.5c0-1.103-.897-2-2-2H13c-1.103 0-2 .897-2 2v22.5a.5.5 0 01-1 0v-22.5c0-1.654 1.346-3 3-3h31c1.654 0 3 1.346 3 3v28.5c0 1.654-1.346 3-3 3zM5.25 57.25h-1a.5.5 0 010-1h1a.5.5 0 010 1zM18.25 57.25h-11a.5.5 0 010-1h11a.5.5 0 010 1zM43.288 5.25h-1a.5.5 0 010-1h1a.5.5 0 010 1zM40.288 5.25h-16a.5.5 0 010-1h16a.5.5 0 010 1z"/></g><path d="M37.683 28.38l-.342-.197a8.5 8.5 0 00.206-1.838c0-.632-.074-1.246-.206-1.838l.342-.197 1.101-.968a.848.848 0 00.174-1.06l-1.424-2.466a.847.847 0 00-1.006-.379l-1.389.47-.347.2a8.46 8.46 0 00-3.179-1.847v-.389l-.287-1.437a.847.847 0 00-.831-.681h-2.848a.847.847 0 00-.831.681l-.287 1.437v.389a8.447 8.447 0 00-3.179 1.847l-.347-.2-1.389-.47a.848.848 0 00-1.006.379l-1.424 2.466a.847.847 0 00.174 1.06l1.101.968.342.197a8.5 8.5 0 00-.206 1.838c0 .632.074 1.246.206 1.838l-.342.197-1.101.967a.848.848 0 00-.174 1.06l1.424 2.466a.848.848 0 001.006.379l1.388-.47.347-.2a8.46 8.46 0 003.179 1.847v.39l.287 1.437a.847.847 0 00.831.681h2.848a.847.847 0 00.831-.681l.287-1.437v-.39a8.447 8.447 0 003.179-1.847l.347.2 1.388.47a.848.848 0 001.006-.379l1.424-2.466a.847.847 0 00-.174-1.06l-1.099-.967zm-8.611 3.261a5.298 5.298 0 11.001-10.595 5.298 5.298 0 01-.001 10.595z" fill="#F63107"/><g fill="#263238"><path d="M30.496 37.438h-2.848a1.35 1.35 0 01-1.321-1.083l-.29-1.563a8.87 8.87 0 01-2.748-1.596l-.036.021-1.478.51a1.352 1.352 0 01-1.599-.603l-1.424-2.466a1.351 1.351 0 01.277-1.686l1.213-1.035a8.938 8.938 0 01-.146-1.592c0-.521.049-1.053.145-1.585l-.031-.018-1.181-1.025a1.35 1.35 0 01-.277-1.686l1.423-2.466c.32-.554.993-.808 1.599-.603l1.508.536a8.885 8.885 0 012.746-1.598v-.03l.297-1.536a1.35 1.35 0 011.321-1.083h2.848c.64 0 1.196.456 1.321 1.083l.29 1.563c1 .359 1.921.895 2.748 1.595l.036-.021 1.479-.51a1.35 1.35 0 011.598.602l1.424 2.467c.32.554.204 1.263-.277 1.686L37.9 24.752c.097.534.146 1.068.146 1.592 0 .521-.049 1.052-.145 1.584l.031.018a.519.519 0 01.081.058l1.101.968a1.35 1.35 0 01.277 1.686l-1.423 2.466a1.35 1.35 0 01-1.599.603l-1.508-.536a8.885 8.885 0 01-2.746 1.598v.031l-.297 1.535a1.353 1.353 0 01-1.322 1.083zm-7.145-5.355c.122 0 .243.045.338.131a7.895 7.895 0 002.991 1.738.5.5 0 01.35.477v.39l.278 1.339a.348.348 0 00.341.279h2.848a.348.348 0 00.341-.279l.288-1.437-.01-.292a.5.5 0 01.35-.477 7.908 7.908 0 002.991-1.738.501.501 0 01.588-.064l.347.2 1.298.429a.344.344 0 00.412-.156l1.424-2.466a.348.348 0 00-.071-.435l-1.063-.935-.299-.172a.501.501 0 01-.239-.542 8.013 8.013 0 00.194-1.73 8 8 0 00-.194-1.73.502.502 0 01.238-.542l.342-.197 1.021-.91a.348.348 0 00.072-.434l-1.424-2.467a.349.349 0 00-.412-.155l-1.389.47-.257.16a.503.503 0 01-.588-.064 7.895 7.895 0 00-2.991-1.738.5.5 0 01-.35-.477v-.389l-.278-1.339a.348.348 0 00-.341-.279h-2.848a.348.348 0 00-.341.279l-.288 1.438.01.291a.5.5 0 01-.35.477 7.908 7.908 0 00-2.991 1.738.501.501 0 01-.588.064l-.347-.2-1.299-.429a.35.35 0 00-.413.156l-1.423 2.466a.348.348 0 00.071.435l1.101.968.262.14a.5.5 0 01.238.542 8 8 0 00-.194 1.73c0 .566.065 1.148.194 1.73a.5.5 0 01-.239.542l-.342.197-1.02.91a.348.348 0 00-.072.434l1.424 2.467a.349.349 0 00.412.156l1.388-.47.257-.16a.485.485 0 01.252-.07zm5.721.058a5.804 5.804 0 01-5.797-5.797 5.804 5.804 0 015.797-5.797 5.804 5.804 0 015.797 5.797c0 3.196-2.6 5.797-5.797 5.797zm0-10.594a4.803 4.803 0 00-4.797 4.797 4.803 4.803 0 004.797 4.797 4.803 4.803 0 004.797-4.797 4.803 4.803 0 00-4.797-4.797zM12.5 3.75h-4a.5.5 0 010-1h4a.5.5 0 010 1z"/><path d="M10.5 5.75a.5.5 0 01-.5-.5v-4a.5.5 0 011 0v4a.5.5 0 01-.5.5zM6.5 9.75h-4a.5.5 0 010-1h4a.5.5 0 010 1z"/><path d="M4.5 11.75a.5.5 0 01-.5-.5v-4a.5.5 0 011 0v4a.5.5 0 01-.5.5z"/></g></g></svg>